Coordinates
version=1
nRows=7
nColumns=40
inDegrees=yes

Units are S.I. units (second, meters, Newtons, ...)
If the header above contains a line with 'inDegrees', this indicates whether rotational values are in degrees (yes) or radians (no).

endheader
time	pelvis_tilt	pelvis_list	pelvis_rotation	pelvis_tx	pelvis_ty	pelvis_tz	hip_flexion_r	hip_adduction_r	hip_rotation_r	knee_angle_r	knee_angle_r_beta	ankle_angle_r	subtalar_angle_r	mtp_angle_r	hip_flexion_l	hip_adduction_l	hip_rotation_l	knee_angle_l	knee_angle_l_beta	ankle_angle_l	subtalar_angle_l	mtp_angle_l	lumbar_extension	lumbar_bending	lumbar_rotation	arm_flex_r	arm_add_r	arm_rot_r	elbow_flex_r	pro_sup_r	wrist_flex_r	wrist_dev_r	arm_flex_l	arm_add_l	arm_rot_l	elbow_flex_l	pro_sup_l	wrist_flex_l	wrist_dev_l
      5.51499999999999968026	     11.84092415720499680276	     -2.81505804397069381295	   -178.97446987583558097867	      0.37978540726088205748	      0.65516982669512413562	     -0.97319700062129765872	     64.57289553086877731403	    -49.69207219506031236733	     -9.79395468415182079980	     55.93110630345709921585	      0.97618195927828110836	     -5.74888720396759733688	      0.00000000000000000000	      0.00000000000000000000	     57.00798803261226765926	    -48.28778081294495194697	    -23.83707637374160981381	     53.56563782811756624369	      0.93489674603147598919	     -9.27423731428187281267	      0.00000000000000000000	      0.00000000000000000000	    -59.11230701918309193843	      1.95282374773038935878	      5.71798475055912280851	     60.94936645640941463853	    -11.06806021012763530109	     20.90413652269990407717	      1.71605103704150896426	     79.74823497399420091369	      0.00000000000000000000	      0.00000000000000000000	     52.65262291948353379212	      3.91798147705223431814	     38.39426343263657770422	      1.52849316934032253279	      6.49227983509500905512	      0.00000000000000000000	      0.00000000000000000000
      5.51999999999999957367	     11.62656676042694847695	     -2.59075674196208405320	   -178.87422420998547067938	      0.37943495652066877577	      0.65687954473521104060	     -0.97313486592200471037	     63.62591717359828180633	    -49.68812894019392700784	    -10.65141155860877830719	     55.62900035127890419062	      0.97090921572289912156	     -5.82370050812476236501	      0.00000000000000000000	      0.00000000000000000000	     56.76248920129144437396	    -48.26206952944590966581	    -23.73730226947406407589	     53.25383556792812100866	      0.92945476997601006452	     -9.38084695973726390150	      0.00000000000000000000	      0.00000000000000000000	    -59.46808120809762243653	      2.20237879221222021542	      5.84234191433051996967	     61.00675928149836835246	    -11.00590473217721765309	     21.65456944561858421139	      1.71886510573025863557	     78.19257338061458995071	      0.00000000000000000000	      0.00000000000000000000	     52.78269058508764288717	      3.96310570540324569322	     37.61676584699527836619	      1.51309543315770622662	      7.01427352460054542860	      0.00000000000000000000	      0.00000000000000000000
      5.52500000000000035527	     11.74442820650465790777	     -2.64019806270657664271	   -178.85331612596803552151	      0.37946547332304475519	      0.65771998694411393238	     -0.97323086681185677627	     63.63698194528240748014	    -49.67798196035991509234	    -10.70723507915062633344	     55.45226303986794391676	      0.96782456772765523834	     -5.96911830013490174451	      0.00000000000000000000	      0.00000000000000000000	     56.64236547961859713496	    -48.13609023748827553391	    -23.94430825394555739649	     52.99170578106646445349	      0.92487974212772328109	     -9.56526502116841648160	      0.00000000000000000000	      0.00000000000000000000	    -59.41082203908266734516	      2.14568930824650072609	      5.82303204713717992291	     61.04126275139896762312	    -11.05763862547547660142	     21.04685505284330204745	      1.71769993102926754602	     79.52206167024164074064	      0.00000000000000000000	      0.00000000000000000000	     52.75696424539282247679	      3.97480271861777145759	     38.13770013996617791463	      1.52460095555095787034	      6.41560786743342426064	      0.00000000000000000000	      0.00000000000000000000
      5.53000000000000024869	     11.50308034375550469974	     -2.39732067074061783174	   -178.74158036650987924077	      0.37912905477169994706	      0.65935693214605772816	     -0.97313780192849319572	     62.63817047264181070432	    -49.67795628677219355041	    -11.61483672919889009734	     55.16657144416281255417	      0.96283830873732423328	     -5.98739474398756321705	      0.00000000000000000000	      0.00000000000000000000	     56.44517163300201900711	    -48.12076181516019346418	    -23.76984979447343704351	     52.76072163440094442421	      0.92084830824850039122	     -9.70662103823893751553	      0.00000000000000000000	      0.00000000000000000000	    -59.77323164760530715967	      2.41017922088749259046	      5.94522254659821047795	     61.12433065745589289008	    -11.00764285173858247902	     21.72284489110908012321	      1.71480863812588446571	     78.30136253082055475261	      0.00000000000000000000	      0.00000000000000000000	     52.88931369939409421477	      3.97874532492145682738	     37.39613556667409710599	      1.51489525044393569253	      6.98879584369938022803	      0.00000000000000000000	      0.00000000000000000000
      5.53500000000000014211	     11.37493938936863457911	     -2.23124138500229518556	   -178.64275765046264154989	      0.37894220165695280400	      0.66067657097429743907	     -0.97306210357171263325	     61.94136079633496194674	    -49.67926410806111192642	    -12.27251475887034892764	     54.91249633136655461385	      0.95840386147165357311	     -6.04883151076025527004	      0.00000000000000000000	      0.00000000000000000000	     56.30569000428259585078	    -48.07080772565734605450	    -23.66723038544771284819	     52.49074323532887120791	      0.91613629627542958467	     -9.83006682021492395052	      0.00000000000000000000	      0.00000000000000000000	    -59.98306606925864770119	      2.59780207898198245431	      5.97011981428230598112	     61.17608785021244699465	    -10.93873131707922929934	     22.48631376382521906976	      1.70688292842571032182	     77.94123578690044951145	      0.00000000000000000000	      0.00000000000000000000	     52.91736563970399487289	      3.93781761452349865493	     37.23105195439529069290	      1.52634122678913919380	      6.82211850346201043038	      0.00000000000000000000	      0.00000000000000000000
      5.54000000000000003553	     11.42323800051901017127	     -2.23211177733855858918	   -178.63404280397895718124	      0.37883932951401144695	      0.66160064782985839038	     -0.97314354839639760630	     61.79410810344909776859	    -49.66614604456815840194	    -12.49131365841561525087	     54.72194614342966190179	      0.95507813330186075440	     -6.19228413305341884865	      0.00000000000000000000	      0.00000000000000000000	     56.14289260246607682348	    -48.00644648098946021264	    -23.86278008770650060910	     52.25318138081085805879	      0.91199005973694646787	     -9.98834034538988646545	      0.00000000000000000000	      0.00000000000000000000	    -59.99213927903019083487	      2.58445625206817286568	      6.04239496187607993960	     61.17794878745534248310	    -11.04510581227162546725	     21.73858539155797586773	      1.75100872091697667976	     78.66153496644821530026	      0.00000000000000000000	      0.00000000000000000000	     52.97423735333405403480	      4.01435615183402649819	     37.04669641972780169681	      1.52478912229164187409	      6.42604591309669626042	      0.00000000000000000000	      0.00000000000000000000
      5.54499999999999992895	     11.71865356084636466960	     -2.07687188804022992983	   -178.49194912141840063668	      0.37905931296728717639	      0.66182773841601683085	     -0.97302599718860249833	     61.76929567880900151522	    -49.65496451188145954347	    -12.86199950261766922210	     54.59109767693207260209	      0.95279439674029231533	     -6.32609227434475318574	      0.00000000000000000000	      0.00000000000000000000	     56.68042067742520373486	    -47.88938074781441400773	    -23.45755159759926655738	     52.11500839988279665249	      0.90957848628245641098	    -10.16665775618238853895	      0.00000000000000000000	      0.00000000000000000000	    -59.67619109707116820118	      2.77691873952928558467	      6.04287605163928098762	     61.12991359505118538209	    -10.96160343528239700106	     21.80853140293417880002	      1.73225468457746600848	     78.21759447546241972304	      0.00000000000000000000	      0.00000000000000000000	     52.92542672837470973946	      3.96850130116468502450	     36.93287095416555843030	      1.49623357528555511742	      7.03457728150398864386	      0.00000000000000000000	      0.00000000000000000000
